<svg width="533" height="151" viewBox="0 0 533 151" fill="none" xmlns="http://www.w3.org/2000/svg">
<path d="M22.5703 15.9609V23.1328H0.421875V15.9609H22.5703ZM5.90625 6.57422H16.0312V42.5391C16.0312 43.6406 16.1719 44.4844 16.4531 45.0703C16.7578 45.6562 17.2031 46.0664 17.7891 46.3008C18.375 46.5117 19.1133 46.6172 20.0039 46.6172C20.6367 46.6172 21.1992 46.5938 21.6914 46.5469C22.207 46.4766 22.6406 46.4062 22.9922 46.3359L23.0273 53.7891C22.1602 54.0703 21.2227 54.293 20.2148 54.457C19.207 54.6211 18.0938 54.7031 16.875 54.7031C14.6484 54.7031 12.7031 54.3398 11.0391 53.6133C9.39844 52.8633 8.13281 51.668 7.24219 50.0273C6.35156 48.3867 5.90625 46.2305 5.90625 43.5586V6.57422ZM40.2148 0V54H30.0898V0H40.2148ZM38.7734 33.6445H35.9961C36.0195 30.9961 36.3711 28.5586 37.0508 26.332C37.7305 24.082 38.7031 22.1367 39.9688 20.4961C41.2344 18.832 42.7461 17.543 44.5039 16.6289C46.2852 15.7148 48.2539 15.2578 50.4102 15.2578C52.2852 15.2578 53.9844 15.5273 55.5078 16.0664C57.0547 16.582 58.3789 17.4258 59.4805 18.5977C60.6055 19.7461 61.4727 21.2578 62.082 23.1328C62.6914 25.0078 62.9961 27.2812 62.9961 29.9531V54H52.8008V29.8828C52.8008 28.1953 52.5547 26.8711 52.0625 25.9102C51.5938 24.9258 50.9023 24.2344 49.9883 23.8359C49.0977 23.4141 47.9961 23.2031 46.6836 23.2031C45.2305 23.2031 43.9883 23.4727 42.957 24.0117C41.9492 24.5508 41.1406 25.3008 40.5312 26.2617C39.9219 27.1992 39.4766 28.3008 39.1953 29.5664C38.9141 30.832 38.7734 32.1914 38.7734 33.6445ZM93.2266 45.4219V28.4766C93.2266 27.2578 93.0273 26.2148 92.6289 25.3477C92.2305 24.457 91.6094 23.7656 90.7656 23.2734C89.9453 22.7812 88.8789 22.5352 87.5664 22.5352C86.4414 22.5352 85.4688 22.7344 84.6484 23.1328C83.8281 23.5078 83.1953 24.0586 82.75 24.7852C82.3047 25.4883 82.082 26.3203 82.082 27.2812H71.957C71.957 25.6641 72.332 24.1289 73.082 22.6758C73.832 21.2227 74.9219 19.9453 76.3516 18.8438C77.7812 17.7188 79.4805 16.8398 81.4492 16.207C83.4414 15.5742 85.668 15.2578 88.1289 15.2578C91.082 15.2578 93.707 15.75 96.0039 16.7344C98.3008 17.7188 100.105 19.1953 101.418 21.1641C102.754 23.1328 103.422 25.5938 103.422 28.5469V44.8242C103.422 46.9102 103.551 48.6211 103.809 49.957C104.066 51.2695 104.441 52.418 104.934 53.4023V54H94.7031C94.2109 52.9688 93.8359 51.6797 93.5781 50.1328C93.3438 48.5625 93.2266 46.9922 93.2266 45.4219ZM94.5625 30.832L94.6328 36.5625H88.9727C87.6367 36.5625 86.4766 36.7148 85.4922 37.0195C84.5078 37.3242 83.6992 37.7578 83.0664 38.3203C82.4336 38.8594 81.9648 39.4922 81.6602 40.2188C81.3789 40.9453 81.2383 41.7422 81.2383 42.6094C81.2383 43.4766 81.4375 44.2617 81.8359 44.9648C82.2344 45.6445 82.8086 46.1836 83.5586 46.582C84.3086 46.957 85.1875 47.1445 86.1953 47.1445C87.7188 47.1445 89.043 46.8398 90.168 46.2305C91.293 45.6211 92.1602 44.8711 92.7695 43.9805C93.4023 43.0898 93.7305 42.2461 93.7539 41.4492L96.4258 45.7383C96.0508 46.6992 95.5352 47.6953 94.8789 48.7266C94.2461 49.7578 93.4375 50.7305 92.4531 51.6445C91.4688 52.5352 90.2852 53.2734 88.9023 53.8594C87.5195 54.4219 85.8789 54.7031 83.9805 54.7031C81.5664 54.7031 79.375 54.2227 77.4062 53.2617C75.4609 52.2773 73.9141 50.9297 72.7656 49.2188C71.6406 47.4844 71.0781 45.5156 71.0781 43.3125C71.0781 41.3203 71.4531 39.5508 72.2031 38.0039C72.9531 36.457 74.0547 35.1562 75.5078 34.1016C76.9844 33.0234 78.8242 32.2148 81.0273 31.6758C83.2305 31.1133 85.7852 30.832 88.6914 30.832H94.5625ZM131.859 15.9609V23.1328H109.711V15.9609H131.859ZM115.195 6.57422H125.32V42.5391C125.32 43.6406 125.461 44.4844 125.742 45.0703C126.047 45.6562 126.492 46.0664 127.078 46.3008C127.664 46.5117 128.402 46.6172 129.293 46.6172C129.926 46.6172 130.488 46.5938 130.98 46.5469C131.496 46.4766 131.93 46.4062 132.281 46.3359L132.316 53.7891C131.449 54.0703 130.512 54.293 129.504 54.457C128.496 54.6211 127.383 54.7031 126.164 54.7031C123.938 54.7031 121.992 54.3398 120.328 53.6133C118.688 52.8633 117.422 51.668 116.531 50.0273C115.641 48.3867 115.195 46.2305 115.195 43.5586V6.57422ZM182.02 45.7031V0H192.215V54H183.039L182.02 45.7031ZM157.973 35.4375V34.6992C157.973 31.793 158.301 29.1562 158.957 26.7891C159.613 24.3984 160.574 22.3477 161.84 20.6367C163.105 18.9258 164.664 17.6016 166.516 16.6641C168.367 15.7266 170.477 15.2578 172.844 15.2578C175.07 15.2578 177.016 15.7266 178.68 16.6641C180.367 17.6016 181.797 18.9375 182.969 20.6719C184.164 22.3828 185.125 24.4102 185.852 26.7539C186.578 29.0742 187.105 31.6172 187.434 34.3828V36C187.105 38.6484 186.578 41.1094 185.852 43.3828C185.125 45.6562 184.164 47.6484 182.969 49.3594C181.797 51.0469 180.367 52.3594 178.68 53.2969C176.992 54.2344 175.023 54.7031 172.773 54.7031C170.406 54.7031 168.297 54.2227 166.445 53.2617C164.617 52.3008 163.07 50.9531 161.805 49.2188C160.562 47.4844 159.613 45.4453 158.957 43.1016C158.301 40.7578 157.973 38.2031 157.973 35.4375ZM168.098 34.6992V35.4375C168.098 37.0078 168.215 38.4727 168.449 39.832C168.707 41.1914 169.117 42.3984 169.68 43.4531C170.266 44.4844 171.016 45.293 171.93 45.8789C172.867 46.4414 174.004 46.7227 175.34 46.7227C177.074 46.7227 178.504 46.3359 179.629 45.5625C180.754 44.7656 181.609 43.6758 182.195 42.293C182.805 40.9102 183.156 39.3164 183.25 37.5117V32.9062C183.18 31.4297 182.969 30.1055 182.617 28.9336C182.289 27.7383 181.797 26.7188 181.141 25.875C180.508 25.0312 179.711 24.375 178.75 23.9062C177.812 23.4375 176.699 23.2031 175.41 23.2031C174.098 23.2031 172.973 23.5078 172.035 24.1172C171.098 24.7031 170.336 25.5117 169.75 26.543C169.188 27.5742 168.766 28.793 168.484 30.1992C168.227 31.582 168.098 33.082 168.098 34.6992ZM219.633 54.7031C216.68 54.7031 214.031 54.2344 211.688 53.2969C209.344 52.3359 207.352 51.0117 205.711 49.3242C204.094 47.6367 202.852 45.6797 201.984 43.4531C201.117 41.2031 200.684 38.8125 200.684 36.2812V34.875C200.684 31.9922 201.094 29.3555 201.914 26.9648C202.734 24.5742 203.906 22.5 205.43 20.7422C206.977 18.9844 208.852 17.6367 211.055 16.6992C213.258 15.7383 215.742 15.2578 218.508 15.2578C221.203 15.2578 223.594 15.7031 225.68 16.5938C227.766 17.4844 229.512 18.75 230.918 20.3906C232.348 22.0312 233.426 24 234.152 26.2969C234.879 28.5703 235.242 31.1016 235.242 33.8906V38.1094H205.008V31.3594H225.293V30.5859C225.293 29.1797 225.035 27.9258 224.52 26.8242C224.027 25.6992 223.277 24.8086 222.27 24.1523C221.262 23.4961 219.973 23.168 218.402 23.168C217.066 23.168 215.918 23.4609 214.957 24.0469C213.996 24.6328 213.211 25.4531 212.602 26.5078C212.016 27.5625 211.57 28.8047 211.266 30.2344C210.984 31.6406 210.844 33.1875 210.844 34.875V36.2812C210.844 37.8047 211.055 39.2109 211.477 40.5C211.922 41.7891 212.543 42.9023 213.34 43.8398C214.16 44.7773 215.145 45.5039 216.293 46.0195C217.465 46.5352 218.789 46.793 220.266 46.793C222.094 46.793 223.793 46.4414 225.363 45.7383C226.957 45.0117 228.328 43.9219 229.477 42.4688L234.398 47.8125C233.602 48.9609 232.512 50.0625 231.129 51.1172C229.77 52.1719 228.129 53.0391 226.207 53.7188C224.285 54.375 222.094 54.7031 219.633 54.7031ZM253.695 0V54H243.535V0H253.695ZM274.75 15.9609V54H264.59V15.9609H274.75ZM263.957 6.04688C263.957 4.57031 264.473 3.35156 265.504 2.39062C266.535 1.42969 267.918 0.949219 269.652 0.949219C271.363 0.949219 272.734 1.42969 273.766 2.39062C274.82 3.35156 275.348 4.57031 275.348 6.04688C275.348 7.52344 274.82 8.74219 273.766 9.70312C272.734 10.6641 271.363 11.1445 269.652 11.1445C267.918 11.1445 266.535 10.6641 265.504 9.70312C264.473 8.74219 263.957 7.52344 263.957 6.04688ZM309.199 15.9609H318.375V52.7344C318.375 56.2031 317.602 59.1445 316.055 61.5586C314.531 63.9961 312.398 65.8359 309.656 67.0781C306.914 68.3438 303.727 68.9766 300.094 68.9766C298.5 68.9766 296.812 68.7656 295.031 68.3438C293.273 67.9219 291.586 67.2656 289.969 66.375C288.375 65.4844 287.039 64.3594 285.961 63L290.426 57.0234C291.598 58.3828 292.957 59.4375 294.504 60.1875C296.051 60.9609 297.762 61.3477 299.637 61.3477C301.465 61.3477 303.012 61.0078 304.277 60.3281C305.543 59.6719 306.516 58.6992 307.195 57.4102C307.875 56.1445 308.215 54.6094 308.215 52.8047V24.75L309.199 15.9609ZM283.605 35.4375V34.6992C283.605 31.793 283.957 29.1562 284.66 26.7891C285.387 24.3984 286.406 22.3477 287.719 20.6367C289.055 18.9258 290.672 17.6016 292.57 16.6641C294.469 15.7266 296.613 15.2578 299.004 15.2578C301.535 15.2578 303.656 15.7266 305.367 16.6641C307.078 17.6016 308.484 18.9375 309.586 20.6719C310.688 22.3828 311.543 24.4102 312.152 26.7539C312.785 29.0742 313.277 31.6172 313.629 34.3828V36C313.277 38.6484 312.75 41.1094 312.047 43.3828C311.344 45.6562 310.418 47.6484 309.27 49.3594C308.121 51.0469 306.691 52.3594 304.98 53.2969C303.293 54.2344 301.277 54.7031 298.934 54.7031C296.59 54.7031 294.469 54.2227 292.57 53.2617C290.695 52.3008 289.09 50.9531 287.754 49.2188C286.418 47.4844 285.387 45.4453 284.66 43.1016C283.957 40.7578 283.605 38.2031 283.605 35.4375ZM293.73 34.6992V35.4375C293.73 37.0078 293.883 38.4727 294.188 39.832C294.492 41.1914 294.961 42.3984 295.594 43.4531C296.25 44.4844 297.059 45.293 298.02 45.8789C299.004 46.4414 300.164 46.7227 301.5 46.7227C303.352 46.7227 304.863 46.3359 306.035 45.5625C307.207 44.7656 308.086 43.6758 308.672 42.293C309.258 40.9102 309.598 39.3164 309.691 37.5117V32.9062C309.645 31.4297 309.445 30.1055 309.094 28.9336C308.742 27.7383 308.25 26.7188 307.617 25.875C306.984 25.0312 306.164 24.375 305.156 23.9062C304.148 23.4375 302.953 23.2031 301.57 23.2031C300.234 23.2031 299.074 23.5078 298.09 24.1172C297.129 24.7031 296.32 25.5117 295.664 26.543C295.031 27.5742 294.551 28.793 294.223 30.1992C293.895 31.582 293.73 33.082 293.73 34.6992ZM338.129 0V54H328.004V0H338.129ZM336.688 33.6445H333.91C333.934 30.9961 334.285 28.5586 334.965 26.332C335.645 24.082 336.617 22.1367 337.883 20.4961C339.148 18.832 340.66 17.543 342.418 16.6289C344.199 15.7148 346.168 15.2578 348.324 15.2578C350.199 15.2578 351.898 15.5273 353.422 16.0664C354.969 16.582 356.293 17.4258 357.395 18.5977C358.52 19.7461 359.387 21.2578 359.996 23.1328C360.605 25.0078 360.91 27.2812 360.91 29.9531V54H350.715V29.8828C350.715 28.1953 350.469 26.8711 349.977 25.9102C349.508 24.9258 348.816 24.2344 347.902 23.8359C347.012 23.4141 345.91 23.2031 344.598 23.2031C343.145 23.2031 341.902 23.4727 340.871 24.0117C339.863 24.5508 339.055 25.3008 338.445 26.2617C337.836 27.1992 337.391 28.3008 337.109 29.5664C336.828 30.832 336.688 32.1914 336.688 33.6445ZM389.242 15.9609V23.1328H367.094V15.9609H389.242ZM372.578 6.57422H382.703V42.5391C382.703 43.6406 382.844 44.4844 383.125 45.0703C383.43 45.6562 383.875 46.0664 384.461 46.3008C385.047 46.5117 385.785 46.6172 386.676 46.6172C387.309 46.6172 387.871 46.5938 388.363 46.5469C388.879 46.4766 389.312 46.4062 389.664 46.3359L389.699 53.7891C388.832 54.0703 387.895 54.293 386.887 54.457C385.879 54.6211 384.766 54.7031 383.547 54.7031C381.32 54.7031 379.375 54.3398 377.711 53.6133C376.07 52.8633 374.805 51.668 373.914 50.0273C373.023 48.3867 372.578 46.2305 372.578 43.5586V6.57422ZM437.469 45.4219V28.4766C437.469 27.2578 437.27 26.2148 436.871 25.3477C436.473 24.457 435.852 23.7656 435.008 23.2734C434.188 22.7812 433.121 22.5352 431.809 22.5352C430.684 22.5352 429.711 22.7344 428.891 23.1328C428.07 23.5078 427.438 24.0586 426.992 24.7852C426.547 25.4883 426.324 26.3203 426.324 27.2812H416.199C416.199 25.6641 416.574 24.1289 417.324 22.6758C418.074 21.2227 419.164 19.9453 420.594 18.8438C422.023 17.7188 423.723 16.8398 425.691 16.207C427.684 15.5742 429.91 15.2578 432.371 15.2578C435.324 15.2578 437.949 15.75 440.246 16.7344C442.543 17.7188 444.348 19.1953 445.66 21.1641C446.996 23.1328 447.664 25.5938 447.664 28.5469V44.8242C447.664 46.9102 447.793 48.6211 448.051 49.957C448.309 51.2695 448.684 52.418 449.176 53.4023V54H438.945C438.453 52.9688 438.078 51.6797 437.82 50.1328C437.586 48.5625 437.469 46.9922 437.469 45.4219ZM438.805 30.832L438.875 36.5625H433.215C431.879 36.5625 430.719 36.7148 429.734 37.0195C428.75 37.3242 427.941 37.7578 427.309 38.3203C426.676 38.8594 426.207 39.4922 425.902 40.2188C425.621 40.9453 425.48 41.7422 425.48 42.6094C425.48 43.4766 425.68 44.2617 426.078 44.9648C426.477 45.6445 427.051 46.1836 427.801 46.582C428.551 46.957 429.43 47.1445 430.438 47.1445C431.961 47.1445 433.285 46.8398 434.41 46.2305C435.535 45.6211 436.402 44.8711 437.012 43.9805C437.645 43.0898 437.973 42.2461 437.996 41.4492L440.668 45.7383C440.293 46.6992 439.777 47.6953 439.121 48.7266C438.488 49.7578 437.68 50.7305 436.695 51.6445C435.711 52.5352 434.527 53.2734 433.145 53.8594C431.762 54.4219 430.121 54.7031 428.223 54.7031C425.809 54.7031 423.617 54.2227 421.648 53.2617C419.703 52.2773 418.156 50.9297 417.008 49.2188C415.883 47.4844 415.32 45.5156 415.32 43.3125C415.32 41.3203 415.695 39.5508 416.445 38.0039C417.195 36.457 418.297 35.1562 419.75 34.1016C421.227 33.0234 423.066 32.2148 425.27 31.6758C427.473 31.1133 430.027 30.832 432.934 30.832H438.805ZM467.383 24.082V54H457.258V15.9609H466.75L467.383 24.082ZM465.906 33.6445H463.164C463.164 30.832 463.527 28.3008 464.254 26.0508C464.98 23.7773 466 21.8438 467.312 20.25C468.625 18.6328 470.184 17.4023 471.988 16.5586C473.816 15.6914 475.855 15.2578 478.105 15.2578C479.887 15.2578 481.516 15.5156 482.992 16.0312C484.469 16.5469 485.734 17.3672 486.789 18.4922C487.867 19.6172 488.688 21.1055 489.25 22.957C489.836 24.8086 490.129 27.0703 490.129 29.7422V54H479.934V29.707C479.934 28.0195 479.699 26.707 479.23 25.7695C478.762 24.832 478.07 24.1758 477.156 23.8008C476.266 23.4023 475.164 23.2031 473.852 23.2031C472.492 23.2031 471.309 23.4727 470.301 24.0117C469.316 24.5508 468.496 25.3008 467.84 26.2617C467.207 27.1992 466.727 28.3008 466.398 29.5664C466.07 30.832 465.906 32.1914 465.906 33.6445ZM522.293 45.7031V0H532.488V54H523.312L522.293 45.7031ZM498.246 35.4375V34.6992C498.246 31.793 498.574 29.1562 499.23 26.7891C499.887 24.3984 500.848 22.3477 502.113 20.6367C503.379 18.9258 504.938 17.6016 506.789 16.6641C508.641 15.7266 510.75 15.2578 513.117 15.2578C515.344 15.2578 517.289 15.7266 518.953 16.6641C520.641 17.6016 522.07 18.9375 523.242 20.6719C524.438 22.3828 525.398 24.4102 526.125 26.7539C526.852 29.0742 527.379 31.6172 527.707 34.3828V36C527.379 38.6484 526.852 41.1094 526.125 43.3828C525.398 45.6562 524.438 47.6484 523.242 49.3594C522.07 51.0469 520.641 52.3594 518.953 53.2969C517.266 54.2344 515.297 54.7031 513.047 54.7031C510.68 54.7031 508.57 54.2227 506.719 53.2617C504.891 52.3008 503.344 50.9531 502.078 49.2188C500.836 47.4844 499.887 45.4453 499.23 43.1016C498.574 40.7578 498.246 38.2031 498.246 35.4375ZM508.371 34.6992V35.4375C508.371 37.0078 508.488 38.4727 508.723 39.832C508.98 41.1914 509.391 42.3984 509.953 43.4531C510.539 44.4844 511.289 45.293 512.203 45.8789C513.141 46.4414 514.277 46.7227 515.613 46.7227C517.348 46.7227 518.777 46.3359 519.902 45.5625C521.027 44.7656 521.883 43.6758 522.469 42.293C523.078 40.9102 523.43 39.3164 523.523 37.5117V32.9062C523.453 31.4297 523.242 30.1055 522.891 28.9336C522.562 27.7383 522.07 26.7188 521.414 25.875C520.781 25.0312 519.984 24.375 519.023 23.9062C518.086 23.4375 516.973 23.2031 515.684 23.2031C514.371 23.2031 513.246 23.5078 512.309 24.1172C511.371 24.7031 510.609 25.5117 510.023 26.543C509.461 27.5742 509.039 28.793 508.758 30.1992C508.5 31.582 508.371 33.082 508.371 34.6992ZM14.625 97.9609V136H4.46484V97.9609H14.625ZM3.83203 88.0469C3.83203 86.5703 4.34766 85.3516 5.37891 84.3906C6.41016 83.4297 7.79297 82.9492 9.52734 82.9492C11.2383 82.9492 12.6094 83.4297 13.6406 84.3906C14.6953 85.3516 15.2227 86.5703 15.2227 88.0469C15.2227 89.5234 14.6953 90.7422 13.6406 91.7031C12.6094 92.6641 11.2383 93.1445 9.52734 93.1445C7.79297 93.1445 6.41016 92.6641 5.37891 91.7031C4.34766 90.7422 3.83203 89.5234 3.83203 88.0469ZM34.9062 106.082V136H24.7812V97.9609H34.2734L34.9062 106.082ZM33.4297 115.645H30.6875C30.6875 112.832 31.0508 110.301 31.7773 108.051C32.5039 105.777 33.5234 103.844 34.8359 102.25C36.1484 100.633 37.707 99.4023 39.5117 98.5586C41.3398 97.6914 43.3789 97.2578 45.6289 97.2578C47.4102 97.2578 49.0391 97.5156 50.5156 98.0312C51.9922 98.5469 53.2578 99.3672 54.3125 100.492C55.3906 101.617 56.2109 103.105 56.7734 104.957C57.3594 106.809 57.6523 109.07 57.6523 111.742V136H47.457V111.707C47.457 110.02 47.2227 108.707 46.7539 107.77C46.2852 106.832 45.5938 106.176 44.6797 105.801C43.7891 105.402 42.6875 105.203 41.375 105.203C40.0156 105.203 38.832 105.473 37.8242 106.012C36.8398 106.551 36.0195 107.301 35.3633 108.262C34.7305 109.199 34.25 110.301 33.9219 111.566C33.5938 112.832 33.4297 114.191 33.4297 115.645ZM87.918 125.488C87.918 124.762 87.707 124.105 87.2852 123.52C86.8633 122.934 86.0781 122.395 84.9297 121.902C83.8047 121.387 82.1758 120.918 80.043 120.496C78.1211 120.074 76.3281 119.547 74.6641 118.914C73.0234 118.258 71.5938 117.473 70.375 116.559C69.1797 115.645 68.2422 114.566 67.5625 113.324C66.8828 112.059 66.543 110.617 66.543 109C66.543 107.406 66.8828 105.906 67.5625 104.5C68.2656 103.094 69.2617 101.852 70.5508 100.773C71.8633 99.6719 73.457 98.8164 75.332 98.207C77.2305 97.5742 79.3633 97.2578 81.7305 97.2578C85.0352 97.2578 87.8711 97.7852 90.2383 98.8398C92.6289 99.8945 94.457 101.348 95.7227 103.199C97.0117 105.027 97.6562 107.113 97.6562 109.457H87.5312C87.5312 108.473 87.3203 107.594 86.8984 106.82C86.5 106.023 85.8672 105.402 85 104.957C84.1562 104.488 83.0547 104.254 81.6953 104.254C80.5703 104.254 79.5977 104.453 78.7773 104.852C77.957 105.227 77.3242 105.742 76.8789 106.398C76.457 107.031 76.2461 107.734 76.2461 108.508C76.2461 109.094 76.3633 109.621 76.5977 110.09C76.8555 110.535 77.2656 110.945 77.8281 111.32C78.3906 111.695 79.1172 112.047 80.0078 112.375C80.9219 112.68 82.0469 112.961 83.3828 113.219C86.125 113.781 88.5742 114.52 90.7305 115.434C92.8867 116.324 94.5977 117.543 95.8633 119.09C97.1289 120.613 97.7617 122.617 97.7617 125.102C97.7617 126.789 97.3867 128.336 96.6367 129.742C95.8867 131.148 94.8086 132.379 93.4023 133.434C91.9961 134.465 90.3086 135.273 88.3398 135.859C86.3945 136.422 84.2031 136.703 81.7656 136.703C78.2266 136.703 75.2266 136.07 72.7656 134.805C70.3281 133.539 68.4766 131.934 67.2109 129.988C65.9688 128.02 65.3477 126.004 65.3477 123.941H74.9453C74.9922 125.324 75.3438 126.438 76 127.281C76.6797 128.125 77.5352 128.734 78.5664 129.109C79.6211 129.484 80.7578 129.672 81.9766 129.672C83.2891 129.672 84.3789 129.496 85.2461 129.145C86.1133 128.77 86.7695 128.277 87.2148 127.668C87.6836 127.035 87.918 126.309 87.918 125.488ZM116.461 105.273V150.625H106.336V97.9609H115.723L116.461 105.273ZM140.543 116.559V117.297C140.543 120.062 140.215 122.629 139.559 124.996C138.926 127.363 137.988 129.426 136.746 131.184C135.504 132.918 133.957 134.277 132.105 135.262C130.277 136.223 128.168 136.703 125.777 136.703C123.457 136.703 121.441 136.234 119.73 135.297C118.02 134.359 116.578 133.047 115.406 131.359C114.258 129.648 113.332 127.668 112.629 125.418C111.926 123.168 111.387 120.754 111.012 118.176V116.242C111.387 113.477 111.926 110.945 112.629 108.648C113.332 106.328 114.258 104.324 115.406 102.637C116.578 100.926 118.008 99.6016 119.695 98.6641C121.406 97.7266 123.41 97.2578 125.707 97.2578C128.121 97.2578 130.242 97.7148 132.07 98.6289C133.922 99.543 135.469 100.855 136.711 102.566C137.977 104.277 138.926 106.316 139.559 108.684C140.215 111.051 140.543 113.676 140.543 116.559ZM130.383 117.297V116.559C130.383 114.941 130.242 113.453 129.961 112.094C129.703 110.711 129.281 109.504 128.695 108.473C128.133 107.441 127.383 106.645 126.445 106.082C125.531 105.496 124.418 105.203 123.105 105.203C121.723 105.203 120.539 105.426 119.555 105.871C118.594 106.316 117.809 106.961 117.199 107.805C116.59 108.648 116.133 109.656 115.828 110.828C115.523 112 115.336 113.324 115.266 114.801V119.688C115.383 121.422 115.711 122.98 116.25 124.363C116.789 125.723 117.621 126.801 118.746 127.598C119.871 128.395 121.348 128.793 123.176 128.793C124.512 128.793 125.637 128.5 126.551 127.914C127.465 127.305 128.203 126.473 128.766 125.418C129.352 124.363 129.762 123.145 129.996 121.762C130.254 120.379 130.383 118.891 130.383 117.297ZM159.523 97.9609V136H149.363V97.9609H159.523ZM148.73 88.0469C148.73 86.5703 149.246 85.3516 150.277 84.3906C151.309 83.4297 152.691 82.9492 154.426 82.9492C156.137 82.9492 157.508 83.4297 158.539 84.3906C159.594 85.3516 160.121 86.5703 160.121 88.0469C160.121 89.5234 159.594 90.7422 158.539 91.7031C157.508 92.6641 156.137 93.1445 154.426 93.1445C152.691 93.1445 151.309 92.6641 150.277 91.7031C149.246 90.7422 148.73 89.5234 148.73 88.0469ZM180.016 106.258V136H169.891V97.9609H179.418L180.016 106.258ZM191.477 97.7148L191.301 107.102C190.809 107.031 190.211 106.973 189.508 106.926C188.828 106.855 188.207 106.82 187.645 106.82C186.215 106.82 184.973 107.008 183.918 107.383C182.887 107.734 182.02 108.262 181.316 108.965C180.637 109.668 180.121 110.523 179.77 111.531C179.441 112.539 179.254 113.688 179.207 114.977L177.168 114.344C177.168 111.883 177.414 109.621 177.906 107.559C178.398 105.473 179.113 103.656 180.051 102.109C181.012 100.562 182.184 99.3672 183.566 98.5234C184.949 97.6797 186.531 97.2578 188.312 97.2578C188.875 97.2578 189.449 97.3047 190.035 97.3984C190.621 97.4688 191.102 97.5742 191.477 97.7148ZM215.062 136.703C212.109 136.703 209.461 136.234 207.117 135.297C204.773 134.336 202.781 133.012 201.141 131.324C199.523 129.637 198.281 127.68 197.414 125.453C196.547 123.203 196.113 120.812 196.113 118.281V116.875C196.113 113.992 196.523 111.355 197.344 108.965C198.164 106.574 199.336 104.5 200.859 102.742C202.406 100.984 204.281 99.6367 206.484 98.6992C208.688 97.7383 211.172 97.2578 213.938 97.2578C216.633 97.2578 219.023 97.7031 221.109 98.5938C223.195 99.4844 224.941 100.75 226.348 102.391C227.777 104.031 228.855 106 229.582 108.297C230.309 110.57 230.672 113.102 230.672 115.891V120.109H200.438V113.359H220.723V112.586C220.723 111.18 220.465 109.926 219.949 108.824C219.457 107.699 218.707 106.809 217.699 106.152C216.691 105.496 215.402 105.168 213.832 105.168C212.496 105.168 211.348 105.461 210.387 106.047C209.426 106.633 208.641 107.453 208.031 108.508C207.445 109.562 207 110.805 206.695 112.234C206.414 113.641 206.273 115.188 206.273 116.875V118.281C206.273 119.805 206.484 121.211 206.906 122.5C207.352 123.789 207.973 124.902 208.77 125.84C209.59 126.777 210.574 127.504 211.723 128.02C212.895 128.535 214.219 128.793 215.695 128.793C217.523 128.793 219.223 128.441 220.793 127.738C222.387 127.012 223.758 125.922 224.906 124.469L229.828 129.812C229.031 130.961 227.941 132.062 226.559 133.117C225.199 134.172 223.559 135.039 221.637 135.719C219.715 136.375 217.523 136.703 215.062 136.703ZM268.492 105.273V150.625H258.367V97.9609H267.754L268.492 105.273ZM292.574 116.559V117.297C292.574 120.062 292.246 122.629 291.59 124.996C290.957 127.363 290.02 129.426 288.777 131.184C287.535 132.918 285.988 134.277 284.137 135.262C282.309 136.223 280.199 136.703 277.809 136.703C275.488 136.703 273.473 136.234 271.762 135.297C270.051 134.359 268.609 133.047 267.438 131.359C266.289 129.648 265.363 127.668 264.66 125.418C263.957 123.168 263.418 120.754 263.043 118.176V116.242C263.418 113.477 263.957 110.945 264.66 108.648C265.363 106.328 266.289 104.324 267.438 102.637C268.609 100.926 270.039 99.6016 271.727 98.6641C273.438 97.7266 275.441 97.2578 277.738 97.2578C280.152 97.2578 282.273 97.7148 284.102 98.6289C285.953 99.543 287.5 100.855 288.742 102.566C290.008 104.277 290.957 106.316 291.59 108.684C292.246 111.051 292.574 113.676 292.574 116.559ZM282.414 117.297V116.559C282.414 114.941 282.273 113.453 281.992 112.094C281.734 110.711 281.312 109.504 280.727 108.473C280.164 107.441 279.414 106.645 278.477 106.082C277.562 105.496 276.449 105.203 275.137 105.203C273.754 105.203 272.57 105.426 271.586 105.871C270.625 106.316 269.84 106.961 269.23 107.805C268.621 108.648 268.164 109.656 267.859 110.828C267.555 112 267.367 113.324 267.297 114.801V119.688C267.414 121.422 267.742 122.98 268.281 124.363C268.82 125.723 269.652 126.801 270.777 127.598C271.902 128.395 273.379 128.793 275.207 128.793C276.543 128.793 277.668 128.5 278.582 127.914C279.496 127.305 280.234 126.473 280.797 125.418C281.383 124.363 281.793 123.145 282.027 121.762C282.285 120.379 282.414 118.891 282.414 117.297ZM318.375 136.703C315.422 136.703 312.773 136.234 310.43 135.297C308.086 134.336 306.094 133.012 304.453 131.324C302.836 129.637 301.594 127.68 300.727 125.453C299.859 123.203 299.426 120.812 299.426 118.281V116.875C299.426 113.992 299.836 111.355 300.656 108.965C301.477 106.574 302.648 104.5 304.172 102.742C305.719 100.984 307.594 99.6367 309.797 98.6992C312 97.7383 314.484 97.2578 317.25 97.2578C319.945 97.2578 322.336 97.7031 324.422 98.5938C326.508 99.4844 328.254 100.75 329.66 102.391C331.09 104.031 332.168 106 332.895 108.297C333.621 110.57 333.984 113.102 333.984 115.891V120.109H303.75V113.359H324.035V112.586C324.035 111.18 323.777 109.926 323.262 108.824C322.77 107.699 322.02 106.809 321.012 106.152C320.004 105.496 318.715 105.168 317.145 105.168C315.809 105.168 314.66 105.461 313.699 106.047C312.738 106.633 311.953 107.453 311.344 108.508C310.758 109.562 310.312 110.805 310.008 112.234C309.727 113.641 309.586 115.188 309.586 116.875V118.281C309.586 119.805 309.797 121.211 310.219 122.5C310.664 123.789 311.285 124.902 312.082 125.84C312.902 126.777 313.887 127.504 315.035 128.02C316.207 128.535 317.531 128.793 319.008 128.793C320.836 128.793 322.535 128.441 324.105 127.738C325.699 127.012 327.07 125.922 328.219 124.469L333.141 129.812C332.344 130.961 331.254 132.062 329.871 133.117C328.512 134.172 326.871 135.039 324.949 135.719C323.027 136.375 320.836 136.703 318.375 136.703ZM340.133 117.367V116.629C340.133 113.84 340.531 111.273 341.328 108.93C342.125 106.562 343.285 104.512 344.809 102.777C346.332 101.043 348.207 99.6953 350.434 98.7344C352.66 97.75 355.215 97.2578 358.098 97.2578C360.98 97.2578 363.547 97.75 365.797 98.7344C368.047 99.6953 369.934 101.043 371.457 102.777C373.004 104.512 374.176 106.562 374.973 108.93C375.77 111.273 376.168 113.84 376.168 116.629V117.367C376.168 120.133 375.77 122.699 374.973 125.066C374.176 127.41 373.004 129.461 371.457 131.219C369.934 132.953 368.059 134.301 365.832 135.262C363.605 136.223 361.051 136.703 358.168 136.703C355.285 136.703 352.719 136.223 350.469 135.262C348.242 134.301 346.355 132.953 344.809 131.219C343.285 129.461 342.125 127.41 341.328 125.066C340.531 122.699 340.133 120.133 340.133 117.367ZM350.258 116.629V117.367C350.258 118.961 350.398 120.449 350.68 121.832C350.961 123.215 351.406 124.434 352.016 125.488C352.648 126.52 353.469 127.328 354.477 127.914C355.484 128.5 356.715 128.793 358.168 128.793C359.574 128.793 360.781 128.5 361.789 127.914C362.797 127.328 363.605 126.52 364.215 125.488C364.824 124.434 365.27 123.215 365.551 121.832C365.855 120.449 366.008 118.961 366.008 117.367V116.629C366.008 115.082 365.855 113.629 365.551 112.27C365.27 110.887 364.812 109.668 364.18 108.613C363.57 107.535 362.762 106.691 361.754 106.082C360.746 105.473 359.527 105.168 358.098 105.168C356.668 105.168 355.449 105.473 354.441 106.082C353.457 106.691 352.648 107.535 352.016 108.613C351.406 109.668 350.961 110.887 350.68 112.27C350.398 113.629 350.258 115.082 350.258 116.629ZM394.516 105.273V150.625H384.391V97.9609H393.777L394.516 105.273ZM418.598 116.559V117.297C418.598 120.062 418.27 122.629 417.613 124.996C416.98 127.363 416.043 129.426 414.801 131.184C413.559 132.918 412.012 134.277 410.16 135.262C408.332 136.223 406.223 136.703 403.832 136.703C401.512 136.703 399.496 136.234 397.785 135.297C396.074 134.359 394.633 133.047 393.461 131.359C392.312 129.648 391.387 127.668 390.684 125.418C389.98 123.168 389.441 120.754 389.066 118.176V116.242C389.441 113.477 389.98 110.945 390.684 108.648C391.387 106.328 392.312 104.324 393.461 102.637C394.633 100.926 396.062 99.6016 397.75 98.6641C399.461 97.7266 401.465 97.2578 403.762 97.2578C406.176 97.2578 408.297 97.7148 410.125 98.6289C411.977 99.543 413.523 100.855 414.766 102.566C416.031 104.277 416.98 106.316 417.613 108.684C418.27 111.051 418.598 113.676 418.598 116.559ZM408.438 117.297V116.559C408.438 114.941 408.297 113.453 408.016 112.094C407.758 110.711 407.336 109.504 406.75 108.473C406.188 107.441 405.438 106.645 404.5 106.082C403.586 105.496 402.473 105.203 401.16 105.203C399.777 105.203 398.594 105.426 397.609 105.871C396.648 106.316 395.863 106.961 395.254 107.805C394.645 108.648 394.188 109.656 393.883 110.828C393.578 112 393.391 113.324 393.32 114.801V119.688C393.438 121.422 393.766 122.98 394.305 124.363C394.844 125.723 395.676 126.801 396.801 127.598C397.926 128.395 399.402 128.793 401.23 128.793C402.566 128.793 403.691 128.5 404.605 127.914C405.52 127.305 406.258 126.473 406.82 125.418C407.406 124.363 407.816 123.145 408.051 121.762C408.309 120.379 408.438 118.891 408.438 117.297ZM437.578 82V136H427.418V82H437.578ZM465.453 136.703C462.5 136.703 459.852 136.234 457.508 135.297C455.164 134.336 453.172 133.012 451.531 131.324C449.914 129.637 448.672 127.68 447.805 125.453C446.938 123.203 446.504 120.812 446.504 118.281V116.875C446.504 113.992 446.914 111.355 447.734 108.965C448.555 106.574 449.727 104.5 451.25 102.742C452.797 100.984 454.672 99.6367 456.875 98.6992C459.078 97.7383 461.562 97.2578 464.328 97.2578C467.023 97.2578 469.414 97.7031 471.5 98.5938C473.586 99.4844 475.332 100.75 476.738 102.391C478.168 104.031 479.246 106 479.973 108.297C480.699 110.57 481.062 113.102 481.062 115.891V120.109H450.828V113.359H471.113V112.586C471.113 111.18 470.855 109.926 470.34 108.824C469.848 107.699 469.098 106.809 468.09 106.152C467.082 105.496 465.793 105.168 464.223 105.168C462.887 105.168 461.738 105.461 460.777 106.047C459.816 106.633 459.031 107.453 458.422 108.508C457.836 109.562 457.391 110.805 457.086 112.234C456.805 113.641 456.664 115.188 456.664 116.875V118.281C456.664 119.805 456.875 121.211 457.297 122.5C457.742 123.789 458.363 124.902 459.16 125.84C459.98 126.777 460.965 127.504 462.113 128.02C463.285 128.535 464.609 128.793 466.086 128.793C467.914 128.793 469.613 128.441 471.184 127.738C472.777 127.012 474.148 125.922 475.297 124.469L480.219 129.812C479.422 130.961 478.332 132.062 476.949 133.117C475.59 134.172 473.949 135.039 472.027 135.719C470.105 136.375 467.914 136.703 465.453 136.703ZM489.32 131.113C489.32 129.613 489.836 128.359 490.867 127.352C491.922 126.344 493.316 125.84 495.051 125.84C496.785 125.84 498.168 126.344 499.199 127.352C500.254 128.359 500.781 129.613 500.781 131.113C500.781 132.613 500.254 133.867 499.199 134.875C498.168 135.883 496.785 136.387 495.051 136.387C493.316 136.387 491.922 135.883 490.867 134.875C489.836 133.867 489.32 132.613 489.32 131.113Z" fill="black"/>
</svg>
